<svg width="46" height="46" viewBox="0 0 46 46" fill="none" xmlns="http://www.w3.org/2000/svg">
<g clip-path="url(#clip0)">
<path d="M17.8568 11.7285L38.2309 21.3734C38.4888 21.4666 38.7116 21.637 38.8691 21.8614C39.0265 22.0858 39.111 22.3533 39.111 22.6274C39.111 22.9015 39.0265 23.169 38.8691 23.3934C38.7116 23.6177 38.4888 23.7881 38.2309 23.8813L17.8568 33.5263C17.6011 33.6871 17.2983 33.7563 16.998 33.7225C16.6978 33.6887 16.4179 33.554 16.2043 33.3403C15.9907 33.1267 15.8559 32.8468 15.8221 32.5466C15.7883 32.2464 15.8575 31.9435 16.0184 31.6878L19.799 23.1742C19.882 22.9972 19.925 22.804 19.925 22.6085C19.925 22.413 19.882 22.2199 19.799 22.0428L15.9995 13.5481C15.8412 13.2907 15.7751 12.9872 15.8119 12.6872C15.8487 12.3873 15.9864 12.1088 16.2022 11.8973C16.4181 11.6858 16.6994 11.554 17 11.5233C17.3006 11.4926 17.6027 11.565 17.8568 11.7285V11.7285Z" stroke="white" stroke-width="2" stroke-linecap="round" stroke-linejoin="round"/>
<path d="M20.0253 22.6275H25.5879" stroke="white" stroke-width="2" stroke-linecap="round" stroke-linejoin="round"/>
</g>
<defs>
<clipPath id="clip0">
<rect width="32" height="32" fill="white" transform="translate(22.6274) rotate(45)"/>
</clipPath>
</defs>
</svg>
