<svg width="30" height="32" viewBox="0 0 30 32" fill="none" xmlns="http://www.w3.org/2000/svg">
<path d="M26.25 19.5986V24.6561C26.2538 25.0279 26.1793 25.3962 26.0317 25.7356C25.884 26.0749 25.6667 26.3773 25.3946 26.6219C25.1226 26.8665 24.8023 27.0475 24.4558 27.1525C24.1093 27.2574 23.7448 27.2838 23.3875 27.2299C18.4337 26.5748 13.8324 24.2414 10.3087 20.5973C6.78498 16.9533 4.53912 12.2058 3.92499 7.1029C3.87276 6.73607 3.89814 6.36196 3.99937 6.00616C4.1006 5.65036 4.2753 5.32128 4.51151 5.04143C4.74773 4.76158 5.03988 4.53758 5.36798 4.38474C5.69608 4.23191 6.05237 4.15385 6.41249 4.15592H11.25C11.559 4.15399 11.8578 4.26997 12.0886 4.48148C12.3194 4.69299 12.466 4.98504 12.5 5.30125C12.624 6.98782 13.0477 8.63662 13.75 10.1657C13.8704 10.4553 13.8835 10.7803 13.7867 11.0791C13.69 11.378 13.4901 11.6299 13.225 11.7872L12.15 12.4178C11.995 12.5055 11.8599 12.6261 11.7536 12.7716C11.6473 12.917 11.5721 13.0841 11.5331 13.2617C11.4941 13.4392 11.4922 13.6233 11.5274 13.8017C11.5627 13.9801 11.6343 14.1488 11.7375 14.2966C12.9741 16.1616 14.5385 17.7721 16.35 19.0453C16.4936 19.1516 16.6574 19.2253 16.8307 19.2615C17.004 19.2978 17.1828 19.2958 17.3553 19.2557C17.5278 19.2155 17.69 19.1382 17.8313 19.0287C17.9726 18.9192 18.0898 18.7801 18.175 18.6206L18.7875 17.5139C18.9494 17.2374 19.2063 17.0336 19.5073 16.943C19.8083 16.8524 20.1314 16.8816 20.4125 17.0248C21.8977 17.7478 23.4993 18.184 25.1375 18.3117C25.4446 18.3467 25.7283 18.4976 25.9338 18.7353C26.1392 18.9729 26.2519 19.2805 26.25 19.5986Z" stroke="white" stroke-width="2" stroke-linecap="round" stroke-linejoin="round"/>
<path d="M20 4.15591V10.5904H26.25M20 10.5904L26.25 4.15591L20 10.5904Z" stroke="white" stroke-width="2" stroke-linecap="round" stroke-linejoin="round"/>
</svg>
