<svg width="43" height="44" viewBox="0 0 43 44" fill="none" xmlns="http://www.w3.org/2000/svg">
<g clip-path="url(#clip0)">
<path d="M26.5165 32.6066L23.0429 36.0802C22.7902 36.3383 22.4846 36.5386 22.1471 36.6673C21.8096 36.7959 21.4482 36.8499 21.0879 36.8256C20.7275 36.8012 20.3767 36.6991 20.0596 36.5261C19.7425 36.3532 19.4666 36.1136 19.251 35.8239C16.1981 31.8711 14.5472 27.0148 14.5584 22.0203C14.5696 17.0258 16.2423 12.177 19.3129 8.23791C19.5279 7.94903 19.8028 7.71001 20.1187 7.53722C20.4347 7.36443 20.7843 7.26193 21.1435 7.23675C21.5027 7.21157 21.8632 7.2643 22.2001 7.39133C22.5371 7.51835 22.8427 7.71668 23.0959 7.97274L26.5165 11.3934C26.7363 11.6106 26.8679 11.9015 26.8859 12.21C26.9039 12.5185 26.8069 12.8227 26.6137 13.0639C25.5431 14.31 24.7102 15.7421 24.1565 17.2889C24.0428 17.5729 23.8288 17.8054 23.5551 17.9422C23.2815 18.0791 22.9671 18.1108 22.6716 18.0313L21.4784 17.7043C21.3086 17.655 21.1302 17.6423 20.9551 17.667C20.78 17.6917 20.6121 17.7533 20.4626 17.8477C20.3131 17.9421 20.1852 18.0672 20.0876 18.2146C19.99 18.3621 19.9248 18.5286 19.8962 18.7031C19.4898 20.8584 19.4898 23.0708 19.8962 25.2261C19.9248 25.4007 19.99 25.5672 20.0876 25.7146C20.1852 25.8621 20.3131 25.9871 20.4626 26.0815C20.6121 26.1759 20.78 26.2375 20.9551 26.2622C21.1302 26.287 21.3086 26.2742 21.4784 26.2249L22.6716 25.8979C22.976 25.8225 23.2976 25.8642 23.5727 26.0148C23.8478 26.1655 24.0562 26.414 24.1565 26.7111C24.7102 28.2579 25.5431 29.6899 26.6137 30.936C26.8069 31.1773 26.9039 31.4815 26.8859 31.79C26.8679 32.0985 26.7363 32.3894 26.5165 32.6066Z" stroke="#0077C0" stroke-width="2" stroke-linecap="round" stroke-linejoin="round"/>
</g>
<defs>
<clipPath id="clip0">
<rect width="30" height="30" fill="white" transform="translate(21.2132 0.786774) rotate(45)"/>
</clipPath>
</defs>
</svg>
