<svg width="91" height="91" viewBox="0 0 91 91" fill="none" xmlns="http://www.w3.org/2000/svg">
<g clip-path="url(#clip0)">
<path d="M60.1774 16.8798C60.1774 15.6657 61.1657 14.6782 62.379 14.6782C63.5931 14.6782 64.5807 15.6657 64.5807 16.8798V17.5606C64.5807 18.149 64.352 18.7008 63.9364 19.1179L63.1516 19.9027C62.1798 20.8745 61.6452 22.1645 61.6452 23.5369V24.9524H64.5807V23.5369C64.5807 22.9485 64.81 22.3967 65.2249 21.9796L66.0104 21.1948C66.9822 20.223 67.5161 18.933 67.5161 17.5606V16.8798C67.5161 14.0468 65.212 11.7427 62.379 11.7427C59.5468 11.7427 57.2419 14.0468 57.2419 16.8798V19.0814H60.1774V16.8798Z" fill="#0077C0"/>
<path d="M61.6452 27.8877H64.5806V30.8232H61.6452V27.8877Z" fill="#0077C0"/>
<path d="M83.562 15.5906V15.6395L83.6006 15.6695L90.3729 20.9361C90.705 21.1961 90.9007 21.5943 90.9007 22.017V48.4362C90.9007 49.1908 90.2882 49.8039 89.5329 49.8039H76.3233H76.2233V49.9039V76.3232V76.4232H76.3233H77.7911C78.5464 76.4232 79.1588 77.0356 79.1588 77.7909V83.6618C79.1588 87.6529 75.9119 90.9005 71.9201 90.9005H7.33977C3.34869 90.9005 0.101095 87.6529 0.101095 83.6618V77.7909C0.101095 77.0356 0.714192 76.4232 1.46883 76.4232H2.93657H3.03657V76.3232V33.7588C3.03657 31.386 4.96764 29.4556 7.33977 29.4556H35.2267H35.3267V29.3556V22.017C35.3267 21.6008 35.5158 21.2082 35.8395 20.9499L35.8396 20.9498L42.6279 15.5196L42.6654 15.4896V15.4415V7.33961C42.6654 6.58431 43.2785 5.97187 44.0332 5.97187H53.863H53.8932L53.9184 5.95508L62.3565 0.330672L62.3567 0.330528C62.8447 0.00343783 63.4897 0.0267388 63.9539 0.388007L63.9539 0.388026L71.1048 5.9508L71.1319 5.97187H71.1662H82.1943C82.9496 5.97187 83.562 6.58428 83.562 7.33961V15.5906ZM59.8768 35.316L60.0557 35.2266L59.8768 35.1371L38.2069 24.3018L38.0622 24.2295V24.3913V46.0612V46.223L38.2069 46.1506L59.8768 35.316ZM67.6169 49.9039V49.8039H67.5169H36.6945C35.9399 49.8039 35.3267 49.1908 35.3267 48.4362V38.162V38.062H35.2267H11.743H11.643V38.162V70.4522V70.5522H11.743H67.5169H67.6169V70.4522V49.9039ZM42.8676 46.879L42.9123 47.0685H83.3159L83.3606 46.879L63.1584 36.7776L63.1137 36.7552L63.069 36.7776L42.8676 46.879ZM66.3513 35.1371L66.1725 35.2266L66.3513 35.316L88.0205 46.1506L88.1652 46.223V46.0612V24.3913V24.2295L88.0205 24.3018L66.3513 35.1371ZM86.8379 21.8348L86.9798 21.7638L86.8545 21.6664L83.7234 19.2312L83.562 19.1056V19.3101V23.3113V23.4731L83.7067 23.4007L86.8379 21.8348ZM63.1092 3.19789L63.0523 3.15364L62.9923 3.1936L59.0987 5.78866L58.8238 5.97187H59.1541H66.3839H66.6753L66.4453 5.79294L63.1092 3.19789ZM80.8265 8.80734V8.70734H80.7265H45.5009H45.4009V8.80734V24.779V24.8408L45.4562 24.8684L63.069 33.6749L63.1137 33.6972L63.1584 33.6749L80.7713 24.8684L80.8265 24.8408V24.779V8.80734ZM42.5207 23.4007L42.6654 23.473V23.3113V19.1983V18.9901L42.5029 19.1202L39.3403 21.6522L39.2183 21.7499L39.3581 21.8197L42.5207 23.4007ZM2.93657 79.1586H2.83657V79.2586V83.6618C2.83657 86.1444 4.85719 88.165 7.33977 88.165H71.9201C74.4034 88.165 76.4233 86.1444 76.4233 83.6618V79.2586V79.1586H76.3233H58.7105H58.6105V79.2586V80.7264C58.6105 83.0985 56.6801 85.0296 54.3073 85.0296H24.9526C22.5805 85.0296 20.6494 83.0985 20.6494 80.7264V79.2586V79.1586H20.5494H2.93657ZM23.4849 79.1586H23.3849V79.2586V80.7264C23.3849 81.59 24.089 82.2941 24.9526 82.2941H54.3073C55.1717 82.2941 55.875 81.59 55.875 80.7264V79.2586V79.1586H55.775H23.4849ZM73.3879 76.4232H73.4879V76.3232V49.9039V49.8039H73.3879H70.4524H70.3524V49.9039V71.92C70.3524 72.6746 69.7399 73.2877 68.9847 73.2877H10.2752C9.52064 73.2877 8.90751 72.6746 8.90751 71.92V36.6943C8.90751 35.939 9.5206 35.3266 10.2752 35.3266H35.2267H35.3267V35.2266V32.2911V32.1911H35.2267H7.33977C6.47617 32.1911 5.77204 32.8945 5.77204 33.7588V76.3232V76.4232H5.87204H73.3879Z" fill="#0077C0" stroke="white" stroke-width="0.2"/>
</g>
<defs>
<clipPath id="clip0">
<rect width="91" height="91" fill="white"/>
</clipPath>
</defs>
</svg>
