<svg width="87" height="87" viewBox="0 0 87 87" fill="none" xmlns="http://www.w3.org/2000/svg">
<path d="M55.3407 29.3074C53.5963 29.3074 52.4029 30.3587 51.4417 31.2041C51.008 31.5869 50.4108 32.1118 50.1367 32.1118C50.0787 32.1118 50.0017 32.0799 49.9482 32.0539C48.6199 31.3883 47.0076 32.2423 46.2421 34.094C45.6939 35.4149 45.5199 37.4202 46.8249 38.7252C49.3552 41.2555 51.5881 41.7862 53.015 41.7862C55.2987 41.7862 57.1794 40.397 57.9261 38.1583C58.1784 37.4 58.6119 36.7213 59.0309 36.0646C59.853 34.7769 61.2305 32.6207 58.9033 30.7662C57.6708 29.7844 56.5065 29.3074 55.3407 29.3074ZM56.5862 34.5042C56.1208 35.2335 55.5407 36.1427 55.1754 37.2418C54.8216 38.3017 54.053 38.8861 53.0148 38.8861C51.7722 38.8861 50.3005 38.1002 48.875 36.6749C48.7618 36.5604 48.7068 36.2892 48.7314 35.9658C48.7705 35.4975 48.9518 35.0785 49.1085 34.8392C49.4492 34.9538 49.7929 35.0119 50.138 35.0119C51.5054 35.0119 52.4899 34.1448 53.3586 33.3806C54.0444 32.7774 54.6911 32.2077 55.3407 32.2077C55.8177 32.2077 56.408 32.486 57.0967 33.0342C57.2243 33.1371 57.278 33.2037 57.2924 33.2066C57.262 33.4457 56.8574 34.0809 56.5862 34.5042Z" fill="#0077C0"/>
<path d="M18.402 20.2159C19.1575 20.4843 19.9853 20.087 20.2523 19.3329C23.7263 9.50322 33.0702 2.90006 43.5 2.90006C45.1283 2.90006 46.7494 3.05961 48.3342 3.37414C48.3212 4.25433 48.4168 5.19383 48.5082 6.11328C48.5937 6.95711 48.7286 8.31581 48.6141 8.8582C45.7489 9.86889 43.703 11.6378 42.9793 13.7418C42.4487 15.2845 42.6733 16.9071 43.6101 18.3137C44.1017 19.0503 44.5309 19.8797 44.9441 20.6829C45.8068 22.3519 46.9292 24.5282 48.7242 24.5282C49.1055 24.5282 49.5188 24.4297 49.9655 24.2064C51.0849 23.6453 51.804 22.3621 52.5639 21.0034C53.299 19.6926 54.2125 18.0598 55.1 18.0598C55.6105 18.0598 55.8047 18.1541 56.1933 19.9911C56.4543 21.2251 56.7792 22.7607 58.1508 23.445C60.0532 24.4004 65.9504 23.4623 69.2635 22.0545C69.3243 22.0283 69.3636 21.9806 69.4187 21.9473C69.5041 21.898 69.5854 21.8487 69.6565 21.7848C69.7276 21.7211 69.7813 21.6514 69.8379 21.576C69.8929 21.5021 69.9451 21.4311 69.9872 21.3469C70.0278 21.2644 70.0509 21.1787 70.0757 21.0875C70.1004 20.9976 70.1208 20.9106 70.1265 20.8163C70.1339 20.7235 70.1221 20.6307 70.1106 20.5351C70.1019 20.4698 70.1135 20.4074 70.0975 20.3422C68.0428 12.7457 62.8099 6.37581 55.7425 2.86386C55.0203 2.50567 54.1547 2.80014 53.7994 3.51636C53.4412 4.23411 53.7357 5.10411 54.4519 5.46078C60.3824 8.40569 64.834 13.6113 66.8856 19.8477C63.8826 20.8207 60.2113 21.1441 59.482 20.8744C59.3066 20.7004 59.134 19.8812 59.031 19.391C58.7178 17.912 58.1363 15.1599 55.1 15.1599C52.5118 15.1599 51.1386 17.6148 50.0338 19.5883C49.6945 20.1973 49.1507 21.1673 48.794 21.5109C48.4359 21.1238 47.895 20.0769 47.521 19.3533C47.0918 18.5194 46.6046 17.5755 46.0231 16.7055C45.5881 16.0501 45.4852 15.3715 45.7215 14.6841C46.1623 13.4024 47.6775 12.222 49.7743 11.526C51.8972 10.8198 51.6289 8.16628 51.394 5.82458C51.2766 4.65739 51.1446 3.33489 51.3157 2.549C51.4824 1.78486 51.0127 1.02497 50.2528 0.833637C48.0573 0.279861 45.7837 0 43.5 0C31.8435 0 21.402 7.38056 17.5189 18.3657C17.2506 19.1211 17.6465 19.9492 18.402 20.2159Z" fill="#0077C0"/>
<path d="M17.4 75.4C17.7713 75.4 18.1424 75.2579 18.4251 74.9752C18.9922 74.4081 18.9922 73.4917 18.4251 72.9249L5.29256 59.7994C5.19536 59.714 2.90006 57.6664 2.90006 53.65V31.9C2.90006 30.3007 4.20064 28.9999 5.80011 28.9999C7.39806 28.9999 8.70017 30.3005 8.70017 31.9V43.3796C8.70017 44.1799 9.34825 44.8295 10.1501 44.8295C10.952 44.8295 11.6001 44.1799 11.6001 43.3796V31.9C11.6001 28.7012 8.99872 26.1 5.80011 26.1C2.60133 26.1 0 28.7014 0 31.9V53.65C0 59.0642 3.27558 61.8903 3.32486 61.9252L16.3749 74.9752C16.6576 75.2579 17.0287 75.4 17.4 75.4Z" fill="#0077C0"/>
<path d="M71.05 27.5499C71.05 27.0584 71.0369 26.5697 71.0122 26.0854C70.9687 25.2851 70.2814 24.6543 69.4882 24.7136C68.6879 24.7542 68.0729 25.4371 68.1151 26.2361C68.1368 26.6726 68.1499 27.109 68.1499 27.5498C68.1499 40.9999 57.3198 51.9706 43.9219 52.1969C39.0992 49.0026 39.6401 46.0388 40.4825 44.0711C43.2433 37.6287 39.2559 34.7042 37.7551 33.602C37.6595 33.5324 37.5709 33.4716 37.4957 33.4136C37.4783 32.8801 37.7176 31.6055 37.8987 30.6498C38.2323 28.8692 38.6498 26.6536 38.6498 24.4003C38.6498 22.5138 37.6899 21.0073 36.0165 20.2678C34.1533 19.4442 31.6621 19.7442 30.3369 20.9507C29.464 21.7439 29.1608 22.8691 29.5248 23.958C29.8728 25.002 29.7205 26.8782 28.7562 28.4442C28.2618 29.2475 27.3627 30.2495 25.8897 30.4641C25.6389 30.5018 25.5199 30.483 25.5084 30.4932C25.3663 30.309 25.2314 29.597 25.143 29.1229C24.7413 27.0059 23.9947 23.062 17.5813 23.062C17.5132 23.062 17.4537 23.0924 17.3885 23.101C17.287 23.1141 17.1898 23.1272 17.0955 23.1605C17.0114 23.1909 16.9417 23.2331 16.8665 23.2779C16.7795 23.3272 16.6982 23.3751 16.6243 23.4404C16.5576 23.4999 16.5083 23.5694 16.4532 23.6406C16.3953 23.716 16.3387 23.787 16.2952 23.8725C16.2517 23.9595 16.2299 24.0523 16.2053 24.1479C16.188 24.2132 16.1516 24.2682 16.1429 24.3364C16.008 25.4399 15.9501 26.4011 15.9501 27.5496C15.9501 39.2105 23.3335 49.652 34.323 53.5335C34.4826 53.5901 34.6464 53.6177 34.806 53.6177C35.4034 53.6177 35.9631 53.245 36.1733 52.6491C36.4401 51.8952 36.0428 51.0658 35.2889 50.799C25.4564 47.3263 18.8503 37.9825 18.8503 27.5498C18.8503 27.0133 18.8663 26.5217 18.8967 26.0346C21.6676 26.371 21.9504 27.85 22.2926 29.6639C22.568 31.111 23.0829 33.8051 26.309 33.3353C28.3216 33.041 30.0674 31.8432 31.2261 29.9656C32.5297 27.8485 32.9516 25.066 32.2483 23.1389C32.4108 22.8866 33.4823 22.4995 34.5625 22.8171C35.6267 23.1318 35.7501 23.8713 35.7501 24.4004C35.7501 26.3841 35.3614 28.4517 35.0483 30.1134C34.5727 32.6393 34.258 34.3082 35.276 35.3247C35.4442 35.4943 35.711 35.7002 36.0388 35.941C37.4873 37.0024 39.671 38.6047 37.8178 42.9285C36.4562 46.1069 36.201 50.7601 42.7276 54.8766C42.9581 55.0231 43.2263 55.0999 43.5004 55.0999C58.6917 55.1001 71.05 42.7416 71.05 27.5499Z" fill="#0077C0"/>
<path d="M33.3501 78.2999H31.9001V66.6999C31.9001 61.3638 28.6392 58.4755 28.5753 58.4247L18.4252 48.2748C17.3348 47.1828 15.9297 46.5492 14.4724 46.4884C12.934 46.4347 11.5 46.9988 10.3994 48.0994C9.29746 49.2 8.72619 50.647 8.78702 52.1724C8.84785 53.6297 9.48302 55.0348 10.5749 56.1251L17.825 63.3752C18.392 63.9422 19.3084 63.9422 19.8753 63.3752C20.4421 62.8082 20.4421 61.8918 19.8753 61.3249L12.6252 54.0749C12.0495 53.4992 11.7161 52.7814 11.6871 52.0536C11.6567 51.3374 11.9219 50.679 12.4499 50.1498C12.9792 49.6221 13.6199 49.3553 14.3537 49.3872C15.0816 49.4163 15.8007 49.7497 16.3749 50.3254L26.593 60.5392C26.6902 60.6277 28.9999 62.736 28.9999 66.7002V78.2999H10.15C9.3481 78.2999 8.70002 78.9496 8.70002 79.7499V85.5498C8.70002 86.3502 9.3481 86.9998 10.15 86.9998C10.9518 86.9998 11.5999 86.3502 11.5999 85.5498V81.1998H31.9V85.5498C31.9 86.3502 32.548 86.9998 33.3499 86.9998C34.1518 86.9998 34.7998 86.3502 34.7998 85.5498V79.7499C34.8 78.9496 34.1519 78.2999 33.3501 78.2999Z" fill="#0077C0"/>
<path d="M81.2 26.1C78.0013 26.1 75.4001 28.7014 75.4001 31.9V43.3796C75.4001 44.1799 76.0482 44.8295 76.85 44.8295C77.6519 44.8295 78.3 44.1799 78.3 43.3796V31.9C78.3 30.3007 79.6006 28.9999 81.2 28.9999C82.798 28.9999 84.1001 30.3005 84.1001 31.9V53.65C84.1001 57.6664 81.8048 59.7138 81.625 59.8749L68.575 72.9249C68.008 73.4919 68.008 74.4083 68.575 74.9752C68.8578 75.2579 69.229 75.4 69.6001 75.4C69.9714 75.4 70.3425 75.2579 70.6253 74.9752L83.5839 62.0077C83.7246 61.8903 87 59.0642 87 53.65V31.9C87 28.7014 84.3986 26.1 81.2 26.1Z" fill="#0077C0"/>
<path d="M76.85 78.3H57.9999V66.6999C57.9999 62.7356 60.3098 60.6273 60.475 60.475L70.6249 50.3251C71.1991 49.7494 71.9184 49.416 72.6462 49.3869C73.3857 49.355 74.0208 49.6218 74.55 50.1495C75.0777 50.6788 75.3432 51.3371 75.3127 52.0533C75.2837 52.7813 74.9503 53.499 74.3746 54.0746L67.1249 61.3248C66.5579 61.8918 66.5579 62.8082 67.1249 63.3751C67.6917 63.9421 68.6083 63.9421 69.1752 63.3751L76.4252 56.125C77.5171 55.0346 78.1508 53.6295 78.2131 52.1723C78.274 50.6469 77.7027 49.1998 76.6007 48.0993C75.5002 46.9987 74.0675 46.4332 72.5277 46.4882C71.0705 46.5491 69.6654 47.1827 68.575 48.2746L58.5003 58.3551C58.3612 58.4754 55.1 61.3639 55.1 66.6998V78.3H53.6501C52.8482 78.3 52.2001 78.9496 52.2001 79.7499V85.5499C52.2001 86.3502 52.8482 86.9998 53.6501 86.9998C54.4519 86.9998 55.1 86.3502 55.1 85.5499V81.1999H75.4001V85.5499C75.4001 86.3502 76.0482 86.9998 76.85 86.9998C77.6519 86.9998 78.3 86.3502 78.3 85.5499V79.7499C78.3 78.9496 77.6519 78.3 76.85 78.3Z" fill="#0077C0"/>
</svg>
