<svg width="87" height="87" viewBox="0 0 87 87" fill="none" xmlns="http://www.w3.org/2000/svg">
<g clip-path="url(#clip0)">
<path d="M36.6746 43.0752L42.4751 48.8751C42.7466 49.1472 43.1157 49.2999 43.5 49.2999C43.8843 49.2999 44.2533 49.1472 44.5248 48.8751L50.3254 43.0752C50.5969 42.8031 50.7502 42.4347 50.7502 42.0497V20.2997H53.1669C54.7473 20.2665 56.1021 19.1633 56.4552 17.6228L62.1243 4.01573C62.498 3.12099 62.3998 2.09814 61.8615 1.29167C61.3239 0.484543 60.4185 6.80132e-07 59.4487 6.80132e-07H27.5512C26.5815 -0.000663077 25.6754 0.484543 25.1378 1.29167C24.5995 2.0988 24.5013 3.12165 24.8749 4.0164L30.5448 17.6228C31.2165 19.2463 32.8022 20.3037 34.5592 20.2997H36.2498V42.0497C36.2498 42.4347 36.4031 42.8031 36.6746 43.0752ZM47.8502 41.4497L43.5 45.7993L39.1497 41.4497V20.2997H47.8502V41.4497ZM33.221 16.507L27.5459 2.89996H59.4487L53.7789 16.5076C53.6674 16.813 53.5247 17.105 53.3528 17.3812C53.2924 17.3977 53.2293 17.4037 53.1669 17.3997H34.5592C33.9737 17.4004 33.4454 17.0479 33.221 16.507Z" fill="#0077C0"/>
<path d="M6.18224 24.1309L3.10705 27.2074C2.56277 27.751 2.25677 28.4884 2.25677 29.2577C2.25677 30.027 2.56277 30.7645 3.10705 31.3081L39.9117 68.1134C40.8636 69.0653 42.1539 69.6002 43.5 69.6002C44.8461 69.6002 46.1364 69.0653 47.0883 68.1134L83.893 31.3081C84.4372 30.7645 84.7432 30.027 84.7432 29.2577C84.7432 28.4884 84.4372 27.751 83.893 27.2074L80.8178 24.1309C79.6847 22.9998 77.8494 22.9998 76.7171 24.1309L43.5 57.3473L10.2829 24.1309C9.15056 22.9998 7.31527 22.9998 6.18224 24.1309ZM44.5248 60.4238L78.7674 26.1812L81.8426 29.2577L45.0379 66.0624C44.177 66.8841 42.823 66.8841 41.9621 66.0624L5.15739 29.2577L8.23258 26.1812L42.4752 60.4238C43.0413 60.9893 43.9587 60.9893 44.5248 60.4238Z" fill="#0077C0"/>
<path d="M84.1 50.7502H68.892C67.9608 50.7516 67.0866 51.1983 66.5397 51.9523L48.5578 76.8498H38.4408L20.4583 51.951C19.9121 51.1976 19.0386 50.7516 18.108 50.7502H2.89996C1.29897 50.7516 0.00199128 52.0492 0 53.6502V84.1001C0.00199128 85.701 1.29897 86.998 2.89996 87H84.1C85.701 86.998 86.998 85.701 87 84.1001V53.6502C86.998 52.0492 85.701 50.7516 84.1 50.7502ZM84.1 84.1001H2.89996V53.6502H18.1093L36.0911 78.5491C36.6381 79.3024 37.5116 79.7485 38.4422 79.7498H48.5578C49.4891 79.7485 50.3633 79.3018 50.9102 78.5477L68.892 53.6502H84.1V84.1001Z" fill="#0077C0"/>
<path d="M18.85 0C18.0489 0 17.3997 0.649155 17.3997 1.45031V19.4156L15.743 16.6543C15.4788 16.2063 14.9943 15.9342 14.4732 15.9415C13.9528 15.9494 13.4763 16.2355 13.2254 16.6908C12.9738 17.1468 12.9857 17.7024 13.2566 18.1465L17.6068 25.3967C17.6228 25.4239 17.6467 25.4431 17.6646 25.469C17.6951 25.5115 17.727 25.552 17.7615 25.5912C17.8245 25.6635 17.8936 25.7299 17.9692 25.7883C18.0071 25.8175 18.0423 25.8467 18.0821 25.8713C18.1856 25.9363 18.2965 25.9881 18.4133 26.0246C18.4312 26.0306 18.4452 26.0438 18.4644 26.0485L18.477 26.0505C18.5918 26.081 18.7107 26.0969 18.8295 26.0983L18.85 26.1003H18.8514C18.864 26.1003 18.8773 26.095 18.8899 26.095C19.0027 26.093 19.1142 26.0784 19.2237 26.0505C19.2563 26.0419 19.2861 26.0233 19.3187 26.012C19.4083 25.9834 19.4952 25.9463 19.5775 25.9011L19.5961 25.8932C19.6107 25.8845 19.6173 25.8706 19.6306 25.862C19.7587 25.7777 19.8729 25.6741 19.9678 25.554C19.9937 25.5221 20.0202 25.4936 20.0428 25.4597C20.0581 25.4372 20.0793 25.4199 20.0933 25.396L24.4435 18.1465C24.7143 17.7017 24.7263 17.1462 24.4747 16.6902C24.2232 16.2348 23.7472 15.9488 23.2262 15.9415C22.7058 15.9335 22.2213 16.2056 21.9571 16.6537L20.2997 19.4156V1.45031C20.2997 0.649155 19.6505 0 18.85 0Z" fill="#0077C0"/>
<path d="M68.15 0C67.3495 0 66.7004 0.649155 66.7004 1.45031V19.4156L65.043 16.6543C64.6281 15.974 63.7427 15.7563 63.059 16.1665C62.376 16.576 62.1516 17.4608 62.5565 18.1465L66.9068 25.3967C66.9227 25.4239 66.9466 25.4431 66.9639 25.469C66.9944 25.5115 67.0263 25.552 67.0608 25.5912C67.1238 25.6635 67.1929 25.7299 67.2692 25.7883C67.3064 25.8175 67.3415 25.8467 67.3814 25.8713C67.4849 25.9363 67.5958 25.9881 67.7126 26.0246C67.7305 26.0306 67.7444 26.0438 67.7637 26.0485L67.7763 26.0505C67.8911 26.081 68.0099 26.0969 68.1288 26.0983L68.15 26.1003H68.1513C68.1639 26.1003 68.1772 26.095 68.1898 26.095C68.3027 26.093 68.4148 26.0784 68.5237 26.0505C68.5562 26.0419 68.5861 26.0233 68.6186 26.012C68.7082 25.9834 68.7952 25.9463 68.8775 25.9011L68.8961 25.8932C68.9107 25.8845 68.9173 25.8706 68.9306 25.862C69.0587 25.7777 69.1729 25.6741 69.2678 25.554C69.2937 25.5221 69.3202 25.4936 69.3428 25.4597C69.358 25.4372 69.3793 25.4199 69.3932 25.396L73.7435 18.1465C74.0143 17.7017 74.0262 17.1462 73.7747 16.6902C73.5238 16.2348 73.0472 15.9488 72.5268 15.9415C72.0058 15.9335 71.5212 16.2056 71.257 16.6537L69.6003 19.4156V1.45031C69.6003 0.649155 68.9512 0 68.15 0Z" fill="#0077C0"/>
</g>
<defs>
<clipPath id="clip0">
<rect width="87" height="87" fill="white"/>
</clipPath>
</defs>
</svg>
