<svg width="87" height="87" viewBox="0 0 87 87" fill="none" xmlns="http://www.w3.org/2000/svg">
<g clip-path="url(#clip0)">
<path d="M86.3196 0.201404C85.8969 -0.0514235 85.372 -0.0664972 84.937 0.16646L64.5484 11.0401L44.1612 0.16646C43.7467 -0.0541642 43.2547 -0.0541642 42.8402 0.16646L22.4516 11.0401L2.06441 0.16646C1.62659 -0.0664972 1.10175 -0.052794 0.680373 0.201404C0.259679 0.453546 0 0.911239 0 1.40388V74.3716C0 74.8896 0.28503 75.3651 0.742038 75.609L21.7904 86.8348C22.205 87.0555 22.6969 87.0555 23.1114 86.8348L43.5 75.9612L63.8872 86.8348C64.0948 86.9458 64.3209 87.0007 64.5484 87.0007C64.7759 87.0007 65.002 86.9458 65.2096 86.8348L86.258 75.609C86.715 75.3651 87 74.8896 87 74.3716V1.40388C87 0.911239 86.7403 0.453546 86.3196 0.201404ZM84.1936 73.5295L64.5484 84.0078L44.1612 73.1342C43.9536 73.0232 43.7275 72.9684 43.5 72.9684C43.2725 72.9684 43.0464 73.0232 42.8388 73.1342L22.4516 84.0078L18.2419 81.7625V70.1619H22.4516C25.5472 70.1619 28.0645 67.6446 28.0645 64.549C28.0645 61.8741 26.1844 59.6323 23.6781 59.0711C23.7945 58.5655 23.8548 58.0495 23.8548 57.5329C23.8548 53.6644 20.7072 50.5168 16.8387 50.5168C12.9702 50.5168 9.82258 53.6644 9.82258 57.5329C9.82258 58.0495 9.88288 58.5655 9.99935 59.0711C7.49301 59.6323 5.6129 61.8741 5.6129 64.549C5.6129 67.6446 8.13021 70.1619 11.2258 70.1619H15.4355V80.2654L2.80645 73.5295V3.74304L21.7904 13.8685C22.205 14.0891 22.6969 14.0891 23.1114 13.8685L42.0968 3.74304V42.0974H44.9032V3.74304L63.8872 13.8685C64.3017 14.0891 64.7937 14.0891 65.2082 13.8685L84.1936 3.74304V73.5295ZM13.2491 59.6953C12.8366 59.0163 12.629 58.288 12.629 57.5329C12.629 55.2122 14.518 53.3232 16.8387 53.3232C19.1594 53.3232 21.0484 55.2122 21.0484 57.5329C21.0484 58.288 20.8408 59.0163 20.4283 59.6953C20.1405 60.1708 20.1604 60.7717 20.479 61.226C20.7983 61.6823 21.3574 61.9084 21.9001 61.7988C22.0782 61.7638 22.2625 61.7426 22.4516 61.7426C23.9994 61.7426 25.2581 63.0012 25.2581 64.549C25.2581 66.0968 23.9994 67.3555 22.4516 67.3555H11.2258C9.67801 67.3555 8.41935 66.0968 8.41935 64.549C8.41935 63.0012 9.67801 61.7426 11.2258 61.7426C11.4149 61.7426 11.5992 61.7638 11.7787 61.7988C12.32 61.907 12.8805 61.6823 13.2005 61.226C13.5184 60.7717 13.5369 60.1708 13.2491 59.6953Z" fill="#0077C0"/>
<path d="M63.1452 22.4516C63.1452 22.9682 63.2055 23.4842 63.3219 23.9898C60.8156 24.551 58.9355 26.7928 58.9355 29.4677C58.9355 32.5633 61.4528 35.0806 64.5484 35.0806H68.7581V46.3065H71.5645V35.0806H75.7742C78.8698 35.0806 81.3871 32.5633 81.3871 29.4677C81.3871 26.7928 79.507 24.551 77.0006 23.9898C77.1171 23.4842 77.1774 22.9682 77.1774 22.4516C77.1774 18.5832 74.0298 15.4355 70.1613 15.4355C66.2928 15.4355 63.1452 18.5832 63.1452 22.4516ZM66.5717 24.614C66.1592 23.935 65.9516 23.2067 65.9516 22.4516C65.9516 20.1309 67.8406 18.2419 70.1613 18.2419C72.482 18.2419 74.371 20.1309 74.371 22.4516C74.371 23.2067 74.1634 23.935 73.7509 24.614C73.4631 25.0895 73.483 25.6904 73.8016 26.1447C74.1209 26.601 74.6814 26.8237 75.2226 26.7175C75.4008 26.6825 75.5851 26.6613 75.7742 26.6613C77.322 26.6613 78.5806 27.9199 78.5806 29.4677C78.5806 31.0155 77.322 32.2742 75.7742 32.2742H64.5484C63.0006 32.2742 61.7419 31.0155 61.7419 29.4677C61.7419 27.9199 63.0006 26.6613 64.5484 26.6613C64.7375 26.6613 64.9218 26.6825 65.1013 26.7175C65.644 26.8223 66.2031 26.601 66.523 26.1447C66.841 25.6904 66.8595 25.0895 66.5717 24.614Z" fill="#0077C0"/>
<path d="M36.4839 63.1451C36.4839 60.8245 38.3729 58.9355 40.6936 58.9355H46.3065C50.1749 58.9355 53.3226 55.7878 53.3226 51.9193C53.3226 48.0509 50.1749 44.9032 46.3065 44.9032H15.4355V47.7096H46.3065C48.6271 47.7096 50.5161 49.5987 50.5161 51.9193C50.5161 54.24 48.6271 56.129 46.3065 56.129H40.6936C36.8251 56.129 33.6774 59.2767 33.6774 63.1451C33.6774 67.0136 36.8251 70.1613 40.6936 70.1613H60.3387V67.3548H40.6936C38.3729 67.3548 36.4839 65.4658 36.4839 63.1451Z" fill="#0077C0"/>
<path d="M78.0894 51.5939C75.9962 49.7316 73.1911 48.8532 70.3771 49.1828C65.4549 49.761 61.7419 54.1071 61.7419 59.3212C61.7419 62.0996 62.5573 64.7909 64.0996 67.1047L70.397 76.5532C70.658 76.9431 71.0959 77.1774 71.5645 77.1774C72.0332 77.1774 72.471 76.9431 72.7321 76.5532L79.0294 67.1047C80.5718 64.7923 81.3871 62.1009 81.3871 59.3212V58.9355C81.3871 56.1331 80.186 53.4575 78.0894 51.5939ZM78.5807 59.3212C78.5807 61.5439 77.9284 63.6981 76.6944 65.5487L71.5645 73.2438L66.4347 65.5473C65.2007 63.6981 64.5484 61.5439 64.5484 59.2876C64.5484 55.5898 67.2541 52.3756 70.7074 51.97C70.9979 51.9358 71.2863 51.9193 71.5727 51.9193C73.2973 51.9193 74.9239 52.5339 76.2244 53.6919C77.7221 55.0218 78.5807 56.9327 78.5807 58.9355V59.3212Z" fill="#0077C0"/>
<path d="M71.5645 54.7258C69.2439 54.7258 67.3549 56.6148 67.3549 58.9355C67.3549 61.2562 69.2439 63.1452 71.5645 63.1452C73.8852 63.1452 75.7742 61.2562 75.7742 58.9355C75.7742 56.6148 73.8852 54.7258 71.5645 54.7258ZM71.5645 60.3387C70.7903 60.3387 70.1613 59.7084 70.1613 58.9355C70.1613 58.162 70.7903 57.5323 71.5645 57.5323C72.3388 57.5323 72.9678 58.162 72.9678 58.9355C72.9678 59.7084 72.3388 60.3387 71.5645 60.3387Z" fill="#0077C0"/>
<path d="M16.603 42.8758L22.9004 33.4274C24.4427 31.1149 25.2581 28.4236 25.2581 25.6438V25.2581C25.2581 22.4557 24.057 19.7802 21.9604 17.9165C19.8672 16.0542 17.0662 15.1745 14.2481 15.5054C9.32585 16.0837 5.61292 20.4297 5.61292 25.6438C5.61292 28.4222 6.42827 31.1135 7.97058 33.4274L14.268 42.8758C14.529 43.2657 14.9668 43.5 15.4355 43.5C15.9042 43.5 16.342 43.2657 16.603 42.8758ZM10.3056 31.87C9.07165 30.0207 8.41937 27.8665 8.41937 25.6103C8.41937 21.9124 11.1251 18.6983 14.5784 18.2927C14.8689 18.2584 15.1573 18.242 15.4437 18.242C17.1683 18.242 18.7949 18.8566 20.0953 20.0145C21.5931 21.3444 22.4516 23.2553 22.4516 25.2581V25.6438C22.4516 27.8665 21.7993 30.0207 20.5654 31.8713L15.4355 39.5665L10.3056 31.87Z" fill="#0077C0"/>
<path d="M19.6452 25.258C19.6452 22.9373 17.7561 21.0483 15.4355 21.0483C13.1148 21.0483 11.2258 22.9373 11.2258 25.258C11.2258 27.5787 13.1148 29.4677 15.4355 29.4677C17.7561 29.4677 19.6452 27.5787 19.6452 25.258ZM14.0323 25.258C14.0323 24.4845 14.6612 23.8548 15.4355 23.8548C16.2097 23.8548 16.8387 24.4845 16.8387 25.258C16.8387 26.0309 16.2097 26.6612 15.4355 26.6612C14.6612 26.6612 14.0323 26.0309 14.0323 25.258Z" fill="#0077C0"/>
</g>
<defs>
<clipPath id="clip0">
<rect width="87" height="87" fill="white"/>
</clipPath>
</defs>
</svg>
