<svg width="96" height="96" viewBox="0 0 96 96" fill="none" xmlns="http://www.w3.org/2000/svg">
<path d="M20.6336 19.7135L20.6336 19.7135C19.9098 20.2123 18.9187 20.0296 18.4201 19.3056L18.3377 19.3623L18.4201 19.3056C17.9214 18.5817 18.1041 17.5908 18.828 17.0922C26.0476 12.1196 34.5113 9.4913 43.3043 9.4913C43.7264 9.4913 44.1313 9.65905 44.4298 9.95747L86.0425 51.5702C86.341 51.8688 86.5087 52.2736 86.5087 52.6956C86.5087 64.2361 82.0151 75.0857 73.8545 83.2458C65.694 91.406 54.8448 95.9 43.3043 95.9C31.7639 95.9 20.9147 91.406 12.7543 83.2458C4.59396 75.0853 0.1 64.2361 0.1 52.6956C0.1 43.9015 2.72818 35.4382 7.70019 28.2201C8.19884 27.4963 9.18992 27.3136 9.91376 27.8122L9.97049 27.7298L9.91377 27.8122C10.6378 28.3108 10.8203 29.3019 10.3217 30.0258L10.404 30.0825L10.3217 30.0258C5.71718 36.7104 3.28315 44.5496 3.28315 52.6956C3.28315 74.7635 21.2365 92.7168 43.3043 92.7168C64.8159 92.7168 82.4169 75.6562 83.2909 54.3556L83.2951 54.2555L83.1949 54.2516C75.5744 53.9537 68.2996 51.686 61.9649 47.7L61.8117 47.6036V47.7847V58.9815V59.0815H61.9117H63.7609C64.7169 59.0815 65.6201 59.4559 66.3047 60.1367C67.7151 61.5395 67.7213 63.8284 66.3189 65.2387L66.3188 65.2388L45.8587 85.8508C45.8586 85.8509 45.8585 85.851 45.8584 85.8511C45.1696 86.5359 44.2672 86.9082 43.3074 86.9082L43.3015 86.9082L43.3015 86.9081L43.297 86.9081C42.3333 86.9054 41.4287 86.5277 40.7491 85.8445L20.4391 65.3832L20.4392 65.3831L20.435 65.3794C19.6747 64.6943 19.2402 63.72 19.2402 62.6947C19.2402 60.7026 20.8613 59.0815 22.8535 59.0815H24.697H24.797V58.9815V26.8411C24.797 24.0981 27.0288 21.8665 29.7717 21.8665H42.9354H43.0638L43.0324 21.742C42.2996 18.8436 41.8684 15.8518 41.7494 12.8056L41.7455 12.7055L41.6454 12.7095C34.0974 13.0173 26.8642 15.422 20.6336 19.7135ZM45.3021 15.3314L45.1011 15.1304L45.132 15.413C47.158 33.9506 62.0375 48.8428 80.587 50.8682L80.8695 50.899L80.6686 50.6981L45.3021 15.3314ZM64.0601 62.3938L63.9938 62.4605L64.0601 62.3938C63.9488 62.2831 63.8269 62.2647 63.7609 62.2647H60.2201C59.3411 62.2647 58.6285 61.5521 58.6285 60.6733V45.4227V45.3736L58.5896 45.3435C57.0936 44.1894 55.6619 42.9329 54.3072 41.573C49.6107 36.8581 46.1351 31.2416 44.0377 25.1173L44.0145 25.0497H43.9431H29.7717C28.7838 25.0497 27.9802 25.8531 27.9802 26.8411V60.6731C27.9802 61.552 27.2676 62.2647 26.3886 62.2647H22.8535C22.6164 62.2647 22.4233 62.4574 22.4233 62.6947C22.4233 62.866 22.5177 62.9729 22.5721 63.0202L22.5723 63.0204C22.6025 63.0464 22.6317 63.0737 22.6598 63.1022L22.6599 63.1023L43.0072 83.6008L43.0073 83.6009C43.1063 83.7003 43.2213 83.7236 43.3002 83.7249C43.3016 83.725 43.3028 83.725 43.3036 83.725L43.3063 83.7251H43.307H43.3072C43.3866 83.7251 43.5042 83.7033 43.6065 83.6014L43.6069 83.601L64.0607 62.9953C64.0607 62.9953 64.0607 62.9953 64.0608 62.9952C64.2268 62.8282 64.2263 62.5591 64.0601 62.3938Z" fill="#0077C0" stroke="white" stroke-width="0.2"/>
<path d="M36.538 40.9546C39.281 40.9546 41.5128 43.1864 41.5128 45.9293C41.5128 48.6723 39.281 50.9041 36.538 50.9041C33.7951 50.9041 31.5633 48.6723 31.5633 45.9293C31.5633 43.1864 33.7951 40.9546 36.538 40.9546ZM36.538 44.1378C35.5501 44.1378 34.7465 44.9414 34.7465 45.9293C34.7465 46.9173 35.5501 47.7209 36.538 47.7209C37.526 47.7209 38.3296 46.9173 38.3296 45.9293C38.3296 44.9414 37.526 44.1378 36.538 44.1378Z" fill="#0077C0" stroke="white" stroke-width="0.2"/>
<path d="M45.0959 59.4619C45.0959 56.719 47.3277 54.4872 50.0707 54.4872C52.8136 54.4872 55.0454 56.719 55.0454 59.4619C55.0454 62.2049 52.8136 64.4367 50.0707 64.4367C47.3277 64.4367 45.0959 62.2049 45.0959 59.4619ZM48.2791 59.4619C48.2791 60.4499 49.0827 61.2535 50.0707 61.2535C51.0586 61.2535 51.8622 60.4499 51.8622 59.4619C51.8622 58.474 51.0586 57.6704 50.0707 57.6704C49.0827 57.6704 48.2791 58.474 48.2791 59.4619Z" fill="#0077C0" stroke="white" stroke-width="0.2"/>
<path d="M49.9596 41.1679L50.0095 41.0816L49.9596 41.1679C50.7209 41.6076 50.9817 42.5808 50.5421 43.342L50.5421 43.342L38.8226 63.641C38.5279 64.1514 37.9931 64.4371 37.4427 64.4371C37.1728 64.4371 36.8993 64.3682 36.6484 64.2235C35.8872 63.7838 35.6264 62.8106 36.0659 62.0494L35.9793 61.9994L36.066 62.0494L47.7855 41.7505C48.2251 40.9894 49.1987 40.7285 49.9596 41.1679Z" fill="#0077C0" stroke="white" stroke-width="0.2"/>
<path d="M15.4712 23.271C15.4712 24.1498 14.7586 24.8626 13.8796 24.8626C13.0005 24.8626 12.2875 24.1498 12.2875 23.271C12.2875 22.3921 12.9994 21.6794 13.8784 21.6794H13.8796C14.7586 21.6794 15.4712 22.3921 15.4712 23.271Z" fill="#0077C0" stroke="white" stroke-width="0.2"/>
</svg>
