<svg width="88" height="88" viewBox="0 0 88 88" fill="none" xmlns="http://www.w3.org/2000/svg">
<path d="M44 4.125V1.375C20.4958 1.375 1.375 20.4958 1.375 44H4.125C4.125 22.0138 22.0138 4.125 44 4.125Z" fill="#0077C0"/>
<path d="M83.875 44C83.875 65.9862 65.9862 83.875 44 83.875V86.625C67.5042 86.625 86.625 67.5042 86.625 44H83.875Z" fill="#0077C0"/>
<path d="M81.125 44C81.125 36.2725 78.7738 28.8668 74.327 22.5816L72.0816 24.1684C76.1984 29.9887 78.375 36.8459 78.375 44C78.375 62.9544 62.9544 78.375 44 78.375C25.0456 78.375 9.625 62.9544 9.625 44C9.625 25.0456 25.0456 9.625 44 9.625C52.3119 9.625 60.126 12.5331 66.3438 17.875H59.125V20.625H70.125C70.8854 20.625 71.5 20.0104 71.5 19.25V8.25H68.75V16.3405C61.9383 10.2218 53.2565 6.875 44 6.875C23.529 6.875 6.875 23.529 6.875 44C6.875 64.471 23.529 81.125 44 81.125C64.471 81.125 81.125 64.471 81.125 44Z" fill="#0077C0"/>
<path d="M44 16.5C28.8365 16.5 16.5 28.8365 16.5 44C16.5 59.1635 28.8365 71.5 44 71.5C59.1635 71.5 71.5 59.1635 71.5 44C71.5 28.8365 59.1635 16.5 44 16.5ZM68.6799 45.375C68.3595 51.161 66.0536 56.4135 62.4181 60.4739L58.7221 56.7779L56.7779 58.7221L60.4739 62.4181C56.4135 66.0536 51.161 68.3595 45.375 68.6799V63.25H42.625V68.6799C36.839 68.3595 31.5865 66.0536 27.5261 62.4181L31.2221 58.7221L29.2779 56.7779L25.5819 60.4739C21.9464 56.4135 19.6405 51.161 19.3201 45.375H24.75V42.625H19.3201C19.6405 36.839 21.9464 31.5865 25.5819 27.5261L29.2779 31.2221L31.2221 29.2779L27.5261 25.5819C31.5865 21.9464 36.839 19.6405 42.625 19.3201V24.75H45.375V19.3201C51.161 19.6405 56.4135 21.9464 60.4739 25.5819L56.7779 29.2779L58.7221 31.2221L62.4181 27.5261C66.0536 31.5865 68.3595 36.839 68.6799 42.625H63.25V45.375H68.6799Z" fill="#0077C0"/>
<path d="M41.25 35.75H31.625C30.8646 35.75 30.25 36.3646 30.25 37.125V41.25H33V38.5H39.875V41.7189L31.0833 45.4864C30.5773 45.7023 30.25 46.2 30.25 46.75V50.875C30.25 51.6354 30.8646 52.25 31.625 52.25H42.625V49.5H33V47.6561L41.7917 43.8886C42.2977 43.6728 42.625 43.175 42.625 42.625V37.125C42.625 36.3646 42.0104 35.75 41.25 35.75Z" fill="#0077C0"/>
<path d="M55 44H48.125V35.75H45.375V45.375C45.375 46.1354 45.9896 46.75 46.75 46.75H55V52.25H57.75V35.75H55V44Z" fill="#0077C0"/>
</svg>
